<?xml version="1.0" encoding="UTF-8"?>
<svg id="Layer_1" xmlns="http://www.w3.org/2000/svg" version="1.1" viewBox="0 0 110 135">
  <!-- Generator: Adobe Illustrator 30.3.0, SVG Export Plug-In . SVG Version: 2.1.3 Build 182)  -->
  <path d="M83.57,20.04H31.62c-4.35,0-8.31,2.49-10.21,6.37-3.88,1.9-6.37,5.87-6.37,10.21v51.95c0,6.28,5.11,11.39,11.39,11.39h51.95c4.35,0,8.31-2.49,10.21-6.37,3.88-1.9,6.37-5.87,6.37-10.21V31.43c0-6.28-5.11-11.39-11.39-11.39ZM92.96,83.38c0,3.69-2.17,7.04-5.53,8.56-1.21.55-2.51.83-3.86.83H31.62c-5.18,0-9.39-4.21-9.39-9.39V31.43c0-.36.02-.71.06-1.06.11-.97.37-1.91.77-2.8,1.51-3.36,4.87-5.53,8.55-5.53h51.95c5.18,0,9.39,4.21,9.39,9.39v51.95h.01Z"/>
  <path d="M73.53,48.2c-1.61-2.79-3.94-5.12-6.72-6.73-2.78-1.62-5.96-2.48-9.2-2.48s-6.41.85-9.2,2.46c0,0-.04.02-.06.04-2.77,1.61-5.08,3.92-6.67,6.69-1.62,2.78-2.48,5.96-2.48,9.2s.85,6.41,2.46,9.2c1.61,2.77,3.92,5.09,6.68,6.7.02.01.04.03.07.04,2.79,1.61,5.97,2.46,9.2,2.46.15,0,.3-.01.45-.01h.07c3.06-.09,6.05-.93,8.68-2.46,2.8-1.61,5.13-3.94,6.74-6.74,1.61-2.79,2.46-5.97,2.46-9.2s-.86-6.42-2.47-9.2v.03ZM49.39,71.6c-2.49-1.44-4.56-3.52-6-6s-2.2-5.32-2.2-8.2.76-5.72,2.21-8.2c1.43-2.49,3.5-4.56,5.99-5.99.02-.01.04-.03.07-.04,2.47-1.42,5.3-2.12,8.13-2.12v32.72c-2.83,0-5.66-.71-8.13-2.12-.02-.02-.04-.03-.07-.04h0Z"/>
  <path d="M57.6,35.85c.55,0,1-.45,1-1v-7.97c0-.55-.45-1-1-1s-1,.45-1,1v7.97c0,.55.45,1,1,1Z"/>
  <path d="M57.6,78.95c-.55,0-1,.45-1,1v7.97c0,.55.45,1,1,1s1-.45,1-1v-7.97c0-.55-.45-1-1-1Z"/>
  <path d="M38.57,45.26l-6.91-3.99c-.48-.28-1.09-.11-1.37.37-.28.48-.11,1.09.37,1.37l6.91,3.99c.16.09.33.13.5.13.35,0,.68-.18.87-.5.28-.48.11-1.09-.37-1.37Z"/>
  <path d="M37.57,67.8l-6.91,3.99c-.48.28-.64.89-.37,1.37.19.32.52.5.87.5.17,0,.34-.04.5-.13l6.91-3.99c.48-.28.64-.89.37-1.37-.28-.48-.89-.64-1.37-.37h0Z"/>
  <path d="M75,44.92c0-2.55,2.37-4.92,4.92-4.92-2.55,0-4.92-2.37-4.92-4.92,0,2.55-2.37,4.92-4.92,4.92,2.55,0,4.92,2.37,4.92,4.92Z"/>
  <path d="M80.35,64.16c0,2.55-2.37,4.92-4.92,4.92,2.55,0,4.92,2.37,4.92,4.92,0-2.55,2.37-4.92,4.92-4.92-2.55,0-4.92-2.37-4.92-4.92Z"/>
  <path d="M45.42,38.34c.18.32.52.5.87.5.17,0,.34-.04.5-.13.48-.28.64-.89.37-1.37l-1.44-2.5c-.28-.48-.89-.64-1.37-.37-.48.28-.64.89-.37,1.37l1.44,2.5Z"/>
  <path d="M35,58.4c.55,0,1-.45,1-1s-.45-1-1-1h-2.89c-.55,0-1,.45-1,1s.45,1,1,1h2.89Z"/>
  <path d="M46.79,76.1c-.48-.27-1.09-.11-1.37.37l-1.44,2.5c-.28.48-.11,1.09.37,1.37.16.09.33.13.5.13.35,0,.68-.18.87-.5l1.44-2.5c.28-.48.11-1.09-.37-1.37h0Z"/>
</svg>